<?xml version="1.0" encoding="utf-8"?>
<!-- Generator: Adobe Illustrator 26.0.3, SVG Export Plug-In . SVG Version: 6.00 Build 0)  -->
<svg version="1.1" id="Calque_1" xmlns="http://www.w3.org/2000/svg" xmlns:xlink="http://www.w3.org/1999/xlink" x="0px" y="0px"
	 viewBox="0 0 327.3 749" style="enable-background:new 0 0 327.3 749;" xml:space="preserve">
<path id="Tracé_3598" style="fill:#FFC330;" d="M62.9,85.5c0,0-5.7-23.9-2.7-29s28.5-26.1,28.5-26.1s27.6-2.8,35.3,1.4L62.9,85.5z"
	/>
<path id="Tracé_3562" style="fill:#F3B1B1;" d="M285.2,122.4c-1.2-9.3-17.8-53.5-29.2-72.2c0,0-1.6-25.2-4.1-26.7
	c-2.6-1.6-0.6,4.9-0.7,7.4s-0.3,7.4-1.2,3.1s-6.3-18.3-8.1-19c-3.1-1.2,4.7,15,4.8,20.7c0,0-5.8-12.9-7.7-18.4c0,0-1.4-4.5-3.3-3.5
	s1.4,5.7,2.2,8.9s4.5,11.6,5,12.7s-1.6-1.2-3.5-5.4s-5-11.1-6.4-9.7s4.2,11.4,6.4,16.1s2.8,6.2,1.3,5.6s-3-2-4.6-4.3
	s-4.4-0.3-2.2,3.2s8.6,8.2,11,10.3c0.4,0.3,4.5,4.5,4.8,4.8c0.3,0.4,0.6,1,0.9,1.7c4.8,10,16.8,44.8,10.9,62.5
	c-6.7,20-23,50.1-42.2,62.6c-12.9,8.4-16.6,12.3-17.7,14c10.9,10.5,25.1,14.9,39.3,14.5c-0.2-0.2-0.4-0.5-0.6-0.7c0,0-4.2-2,6-14.6
	C260.8,178,286.6,133.5,285.2,122.4"/>
<path id="Tracé_3565" style="fill:#181E4B;" d="M195.7,107.5c0,0,18.7,0.6,18.7,29.8S171.3,234,129,210.5s-23.2-49.1-23.2-49.1
	s-2.7,29.7,15.9,21.3c0,0-8.6,0.6-8.6-7.1s10.5-11.8,10.5-11.8s-11.3,9.1-2.4,12.1s16.4-14.4,16.4-14.4s-13.1,8.6-13.1-1.8
	c0,0,3.8,6.2,10,0s5-10.1,7.7-17.6s18-26.2,26.2-31.6S193.3,105.1,195.7,107.5"/>
<path id="Tracé_3566" style="fill:#F3B1B1;" d="M180.9,349.5l-34.1,195.8c0,0-4.2,10.2-10.9,29.5s-10.5,131-10.5,131L110,734
	l8.9,15c0,0,5.6-11.3,8.4-16.6s4.8-22.9,4.8-22.9s39.6-142.9,42.3-153.3s40-157,40-157L180.9,349.5z"/>
<path id="Tracé_3567" style="fill:#E08C8C;" d="M200.4,454.6h-37.8L150.4,524c11.1-3.1,22.5-5.3,33.9-6.7
	C189.2,498.3,195.1,475.3,200.4,454.6"/>
<path id="Tracé_3568" style="fill:#F3B1B1;" d="M87.2,253.2c-14.7-4.9-38.8-27.4-48.9-40h0c-1-1.2-1.8-2.5-2.6-3.9
	c-0.9-4-1.4-14.6-3.7-19.4s-6.1-2.8-4.7,0.5s1.9,6,1.6,8.1s-1.4,0.4-5-5.1s-10.3-18.5-12.7-17.7s2.7,8.7,6,13.7s4.2,8.9,3.4,7.6
	s-7.1-11-10-14s-6.6-8.5-8.8-6.9s1.8,4.3,1.8,4.3c4.8,5.1,14.8,21.2,14.8,21.2C12.5,198,0.8,178.4,0,182.9
	c-0.4,2.5,10.6,17.8,14.5,21.6s-1.3,0.9-3.9-0.6s-8.1-7.9-8.1-3.8c0,3.9,18.2,15.4,25,21.9c0-0.1,0.1-0.1,0.1-0.2
	C46.2,243,75,272.2,90,275.3c19.3,3.9,79.2-43.1,93.1-49.7l-12.5-27.8C153.2,204.5,106.3,259.6,87.2,253.2"/>
<path id="Tracé_3569" style="fill:#F3B1B1;" d="M240.3,210.5l-21.1-27.8c0,0-31.2,8.2-48.6,15c0,0,15.8,52.3,23.8,75.4
	c5.3,15.4,0.4,30.5-6.5,44.4c15.2,3,30.2,6.3,45.2,9.6l0.7-3.7C233.8,323.4,250.6,245.3,240.3,210.5"/>
<path id="Tracé_3570" style="fill:#F3B1B1;" d="M166.1,166.6c0.5,0,14.7,10.7,16.4,21.3c1.8,10.6,2.4,21.7,8.4,22.5
	s28.7-11,22.5-21.9c-10.7-5.7-17.5-16.8-17.9-28.9L166.1,166.6z"/>
<path id="Tracé_3571" style="fill:#E08C8C;" d="M195.6,160.9c0-0.4-0.1-0.8-0.1-1.2l-29.5,7c0.3,0,5.5,3.9,10.1,9.3
	c5.3-1.7,10.2-4.5,14.3-8.3C192.5,165.7,194.3,163.4,195.6,160.9"/>
<path id="Tracé_3572" style="fill:#F3B1B1;" d="M200.7,112.6c-0.9,0-19.8-9.4-28.7-2.5s-5.2,15.9-6.5,19.1c-1.1,2.8-8,5-12.3,5.6
	c-1.1,0.2-1.9,1.3-1.7,2.4c0,0.1,0,0.1,0,0.2c0.1,0.7,0.5,1.3,0.9,1.9c1.2,1.3,1.3,3.5,0.4,3.5c-1.9,0-2,1-1.3,3.1
	c0.3,1.5,0.2,3-0.3,4.5c-0.5,0.9-0.7,1.8-0.7,2.8c0,0,1.5,1.8,0.8,2.5s-3.1,2.7,1.3,7.4s27.2,8.3,43.5-4.4S208.3,112.6,200.7,112.6"
	/>
<path id="Tracé_3573" style="fill:#172866;" d="M163.3,125.6c1,1.6,2.4,2.9,4,3.7c1.8,1,3.1,2.6,3.7,4.6c-3.7-4.3-4.8-3.2-6.5-5.6
	C164,127.5,163.5,126.6,163.3,125.6"/>
<path id="Tracé_3574" style="fill:#18287D;" d="M166.4,129.6c0,0-0.9,0.3-1.1,1.9c-0.1,0.7,0.3,1.3,0.9,1.7l0.6-3.2L166.4,129.6z"
	/>
<path id="Tracé_3575" style="fill:#172866;" d="M173.6,121.4c-1.4-0.8-3-1.1-4.6-0.8c-0.1,0-0.1,0-0.1,0l-0.4,1.2
	c1.4-0.3,2.9-0.3,4.3,0c1.9,0.6,3.6,5.3,3.6,5.3S175.7,122.8,173.6,121.4"/>
<path id="Tracé_3576" style="fill:#F1A501;" d="M60.5,77.9C45.6,95.3,32.8,115.1,28.1,137c-0.3,0.9-0.2,1.9,0.2,2.8
	c1,1.5,3.3,1,4.9,0.2c11.8-5.6,21.7-14.2,32-22.2c15.2-11.8,31.4-22.3,45.9-34.9c14.1-12.3,25.4-26.4,36.4-41.5
	c7-9.7,20.5-18.1,24.4-29.7c1.4-4,0.2-9.1-3.5-10.9c-3.5-1.7-7.7,0-11.1,1.8c-28.3,14.3-54.3,32.7-77.1,54.7
	C73.4,63.7,66.8,70.6,60.5,77.9"/>
<path id="Tracé_3577" style="fill:#181E4B;" d="M125.8,42c-4.8-5.2-14.1,5-29.3,18.9S66.2,87.1,70.9,92.3s20.9-1.8,36.1-15.7
	S130.6,47.2,125.8,42"/>
<path id="Tracé_3578" style="fill:#F1A501;" d="M170.6,197.7l12.5,23.9l4.2-1.4l-11.7-24.9L170.6,197.7z"/>
<path id="Tracé_3579" style="fill:#2846A6;" d="M180.8,107.8c0,0,10.5,23.2,15,24.6s10.5,1.8,5.5,11.9s-27.5,24.7-31.4,34.2
	c-3.8,9.5-14.6,2.2-14.6,2.2s-0.7,5.5,8.8,9.2s16.1-4.5,16.1-4.5s3.1,5.8-4.8,7.3c0,0,27.4-0.9,37.7-28.1s1.5-38.1-2.1-46.7
	C206.6,107.1,196.2,102.8,180.8,107.8"/>
<path id="Tracé_3580" style="fill:#172866;" d="M155.2,150.4c0.8-3.2-3.5-4.6-3.5-4.6c0.3,1.5,0.2,3-0.3,4.5
	c-0.1,0.2-0.2,0.4-0.2,0.6C152.6,152.2,154.5,153.3,155.2,150.4"/>
<path id="Tracé_3582" style="fill:#F1A501;" d="M204.5,174.4c0,0,13.2,8.3,13.4,8.7l-11.1-4.4l-1.7,5.5l12.8-1.1l-16.3,4.3
	L204.5,174.4z"/>
<path id="Tracé_3583" style="fill:#F3B1B1;" d="M230,727.7c-14.8-14.8,0-142.2,0-142.2l6.8-194.6l0.1-1.8l-46.4,3.2
	c0,0,20.9,164.7,12.3,184.3s8.6,142.1,8.6,142.1c-2.3,5.6-4.2,11.3-5.8,17.2c-2.1,8.3,5.3,7.3,17.9,7.3s32.5,1.8,32.5,1.8
	S244.7,742.5,230,727.7"/>
<path id="Tracé_3584" style="fill:#E08C8C;" d="M197.5,454.6c2.1,19.7,4.1,41.4,5.5,61.2c9.8-0.4,19.6-0.2,29.3,0.6l2.1-61.8H197.5
	z"/>
<path id="Tracé_3585" style="fill:#2846A6;" d="M218.8,161.9c2-1.8,3.6-6.8,3.7-9.4c0.9-14.4-12.3-29.6-13.7-31.9l0.9-0.8l4.1,4.6
	c9.9,11.4,18.8,30.3,8.8,41.5L218.8,161.9z"/>
<path id="Tracé_3586" style="fill:#284690;" d="M194.1,186.5c13-2.3,17.2-21.4,17-34.8l-0.2-6.1l0.5,0c0,0.3,4.4,38.4-17,43
	L194.1,186.5z"/>
<path id="Tracé_3587" style="fill:#F1A501;" d="M216.9,183.4l15.3,23.8l4.4-1.4l-17.4-23.1L216.9,183.4z"/>
<path id="Tracé_3588" style="fill:#F3B1B1;" d="M188.7,137.7c0,0,4.1-10.5,9.6-9.5s5.5,11.4,2.6,15.6s-8.4,2.6-9.9,1.1
	S188.7,137.7,188.7,137.7"/>
<path id="Tracé_3589" style="fill:#E08C8C;" d="M191.8,136.5c0,0,3.8-7.5,6.1-5.2s3.4,10.5-1.4,12.4S191.8,136.5,191.8,136.5"/>
<path id="Tracé_3590" style="fill:#F1A501;" d="M213.5,167.8c0,0,4,15,4.3,15.3l-0.9-11.9h5.7l-4.8,11.9l9-14.2L213.5,167.8z"/>
<path id="Tracé_3591" style="fill:#F1A501;" d="M220.5,183.3c0,1.3-1.1,2.4-2.4,2.4c-1.3,0-2.4-1.1-2.4-2.4c0-1.3,1.1-2.4,2.4-2.4
	l0,0C219.5,180.9,220.5,182,220.5,183.3"/>
<path id="Tracé_3592" style="fill:#F1A501;" d="M219.2,183.3c3.7,2.7,8.7,2.9,12.6,0.5l1.2,2.5C228.2,188.1,222.8,187,219.2,183.3"
	/>
<path id="Tracé_3593" style="fill:#F1A501;" d="M217.8,183.7c-1,15.6,23.6,13.9,26.1,1.2l2.7,0.5
	C242.6,200.3,215.6,200.1,217.8,183.7"/>
<path id="Tracé_3594" style="fill:#FF9739;" d="M199.9,314c-3.3-5.5-4.4-12.2,1.7-18.2s-5.7-8.6-7.4-15.9s9.5-11.3,15.6-17.3
	s-12.7-13.9-24.3-25.5c-4.6-4.4-8.2-9.6-10.9-15.4l-0.5,0.1c8,29.7,13.4,60.1,16.3,90.7c-0.5,0.1-0.9,0.2-1.4,0.3
	C195.2,315.2,201.8,317.1,199.9,314"/>
<path id="Tracé_3595" style="fill:#FCEE21;" d="M258.6,373.7c21.5,40.4,37.7,84.5,40.4,129.9c1.6,0.1,3.2,0.2,4.7,0.3
	c-5.5-63.1-37.6-129.3-74.6-178.1C240,341.1,249.8,357.1,258.6,373.7"/>
<path id="Tracé_3596" style="fill:#FCEE21;" d="M268,502.7c1.5,0,2.9,0,4.4,0c-0.9-57.7-28.5-127.8-51.8-172.8
	C243.3,376.6,268.5,447.5,268,502.7"/>
<path id="Tracé_3597" style="fill:#F1A501;" d="M301,410.4c-35.9-45.7-61.5-85.7-65.3-91.7c2.3-7.2,12.1-38.6,15.1-57.2
	c3.4-21.2-11.2-58.7-11.2-58.7L174,221.9c8,29.7,13.4,60.1,16.3,90.7C69.3,341.6,83.2,521,85.3,522.4c0,0,128.7-28.9,238.9-16.7
	C324.2,505.8,339.9,460,301,410.4"/>
</svg>
